<svg width="16" height="16" viewBox="0 0 16 16" fill="none" xmlns="http://www.w3.org/2000/svg">
<path fill-rule="evenodd" clip-rule="evenodd" d="M0.707106 13.435C0.316582 13.8255 0.316582 14.4587 0.707106 14.8492C1.09763 15.2397 1.7308 15.2397 2.12132 14.8492L7.77815 9.19239L13.435 14.8492C13.8255 15.2398 14.4587 15.2398 14.8492 14.8492C15.2397 14.4587 15.2397 13.8256 14.8492 13.435L9.19236 7.77817L14.8492 2.12129C15.2398 1.73077 15.2398 1.0976 14.8492 0.707078C14.4587 0.316553 13.8256 0.316554 13.435 0.707078L7.77815 6.36396L2.12129 0.707107C1.73077 0.316583 1.0976 0.316583 0.707078 0.707107C0.316553 1.09763 0.316554 1.7308 0.707078 2.12132L6.36393 7.77817L0.707106 13.435Z" fill="white"/>
</svg>
